LG_Walk_Slower03																		
version=1																		
nRows=50																		
nColumns=19																		
inDegrees=yes																		
endheader																		
time	ground_force2_vx	ground_force2_vy	ground_force2_vz	ground_force2_px	ground_force2_py	ground_force2_pz	ground_torque2_x	ground_torque2_y	ground_torque2_z	ground_force1_vx	ground_force1_vy	ground_force1_vz	ground_force1_px	ground_force1_py	ground_force1_pz	ground_torque1_x	ground_torque1_y	ground_torque1_z
6.255	-41.950333	756.989136	70.206772	0.150053	0	-0.243458	8.00E-06	2.232249	6.00E-06	0	0	0	-0.13	0	0.305	0	0	0
6.256	-42.108921	756.989136	70.755287	0.150031	0	-0.243458	8.00E-06	2.244248	7.00E-06	0	0	0	-0.13	0	0.305	0	0	0
6.257	-42.108921	756.989136	70.912025	0.150047	0	-0.243467	1.10E-05	2.252595	7.00E-06	0	0	0	-0.13	0	0.305	0	0	0
6.258	-41.639652	757.329346	70.990395	0.150047	0	-0.243626	1.10E-05	2.244248	4.00E-06	0	0	0	-0.13	0	0.305	0	0	0
6.259	-41.560356	756.994873	71.538872	0.150047	0	-0.243626	1.10E-05	2.234105	4.00E-06	0	0	0	-0.13	0	0.305	0	0	0
6.26	-41.559635	756.994873	71.852196	0.149878	0	-0.243107	1.10E-05	2.234105	4.00E-06	0	0	0	-0.13	0	0.305	0	0	0
6.261	-41.55891	756.994873	71.930603	0.149878	0	-0.243107	6.00E-06	2.263661	8.00E-06	0	0	0	-0.13	0	0.305	0	0	0
6.262	-41.090366	756.827515	73.027557	0.149884	0	-0.242781	6.00E-06	2.276775	8.00E-06	0	0	0	-0.13	0	0.305	0	0	0
6.263	-41.323193	757.868896	73.184174	0.150247	0	-0.242752	8.00E-06	2.263661	3.00E-06	0	0	0	-0.13	0	0.305	0	0	0
6.264	-41.090366	756.66626	73.576027	0.149963	0	-0.24265	8.00E-06	2.177293	3.00E-06	0	0	0	-0.13	0	0.305	0	0	0
6.265	-40.696781	757.693481	73.576111	0.149993	0	-0.242251	8.00E-06	2.177293	3.00E-06	0	0	0	-0.13	0	0.305	0	0	0
6.266	-40.544685	756.823242	74.438026	0.149963	0	-0.24223	4.00E-06	2.179816	4.00E-06	0	0	0	-0.13	0	0.305	0	0	0
6.267	-40.465393	756.823242	74.673218	0.149526	0	-0.241999	9.00E-06	2.27502	1.20E-05	0	0	0	-0.13	0	0.305	0	0	0
6.268	-40.465393	756.823242	74.751266	0.149526	0	-0.241737	1.00E-05	2.364512	1.20E-05	0	0	0	-0.13	0	0.305	0	0	0
6.269	-40.465393	757.012634	76.161942	0.149688	0	-0.241731	1.20E-05	2.364512	1.20E-05	0	0	0	-0.13	0	0.305	0	0	0
6.27	-41.951775	757.012634	77.88549	0.149688	0	-0.241731	1.90E-05	2.364512	9.00E-06	0	0	0	-0.13	0	0.305	0	0	0
6.271	-42.656765	756.319092	79.21772	0.149652	0	-0.241731	1.90E-05	2.372315	8.00E-06	0	0	0	-0.13	0	0.305	0	0	0
6.272	-42.656765	755.819214	79.531197	0.149652	0	-0.241114	8.00E-06	2.372315	9.00E-06	0	0	0	-0.161502	0	0.323873	0	0	0
6.273	-41.951775	755.819214	81.176384	0.149798	0	-0.240726	8.00E-06	2.372315	5.00E-06	0	0	0	-0.161502	0	0.323873	0	0	0
6.274	-41.951775	757.028076	81.724976	0.149846	0	-0.241021	1.00E-05	2.309072	6.00E-06	0	0	0	-0.161502	0	0.323873	0	0	0
6.275	-42.80669	757.028076	81.95993	0.149846	0	-0.240726	1.00E-05	2.290309	5.00E-06	0	0	0	-0.161502	0	0.314932	0	0	0
6.276	-42.80669	757.028076	82.273407	0.149846	0	-0.241021	9.00E-06	2.286644	3.00E-06	0	0	0	-0.158925	0	0.253362	0	0	0
6.277	-42.80669	756.674377	82.821808	0.149711	0	-0.24103	6.00E-06	2.286644	3.00E-06	0	0	0	-0.13	0	0.253362	0	0	0
6.278	-43.120262	757.388306	84.231956	0.149743	0	-0.24103	9.00E-06	2.390489	6.00E-06	0	0	0	-0.13	0	0.253362	0	0	0
6.279	-43.356701	757.388306	84.937134	0.149743	0	-0.240836	3.00E-06	2.390489	9.00E-06	7.0442	22.019958	31.195976	-0.080309	0	0.200986	0	-1.769564	0
6.28	-43.120262	757.732056	85.798767	0.14984	0	-0.240836	1.00E-05	2.390489	6.00E-06	7.0442	24.126459	31.195976	-0.080309	0	0.169141	0	-1.769564	0
6.281	-43.113045	757.742798	86.112015	0.149972	0	-0.240836	1.00E-05	2.303137	5.00E-06	5.791369	38.262932	31.195976	-0.080309	0	0.169141	0.00E+00	-2.055975	0
6.282	-43.113045	758.267029	86.112015	0.149972	0	-0.240873	1.00E-05	2.361191	5.00E-06	5.647214	39.803139	32.762703	-0.072212	0	0.171458	-1.00E-06	-1.777872	0
6.283	-43.188732	759.141113	86.660248	0.149903	0	-0.240782	9.00E-06	2.361191	9.00E-06	3.763636	44.461205	33.546257	-0.072212	0	0.178367	0.00E+00	-1.777872	0.00E+00
6.284	-43.190178	758.267029	87.992142	0.149722	0	-0.240218	8.00E-06	2.361191	9.00E-06	2.660735	49.96666	35.112785	-0.076073	0	0.180702	0	-1.777872	0
6.285	-43.581596	758.11853	88.540779	0.149754	0	-0.240086	8.00E-06	2.401066	5.00E-06	2.433676	50.825302	35.112785	-0.079079	0	0.180702	0	-1.216191	0
6.286	-43.581596	757.947632	88.540779	0.149754	0	-0.239687	7.00E-06	2.309799	5.00E-06	1.342318	55.486435	34.250866	-0.083623	0	0.180702	0.00E+00	-1.213528	0
6.287	-43.194504	757.947632	87.914658	0.149754	0	-0.239687	1.10E-05	2.309799	8.00E-06	1.342318	60.291012	31.27318	-0.089752	0	0.188433	-1.00E-06	-0.949967	0
6.288	-43.038803	755.511841	87.836044	0.149481	0	-0.239687	1.00E-05	2.309799	9.00E-06	1.345206	64.189903	28.13863	-0.091484	0	0.206672	-1.00E-06	-0.819641	0
6.289	-42.731007	754.82373	87.914658	0.149401	0	-0.239518	1.10E-05	2.333166	8.00E-06	1.742398	64.887268	25.630926	-0.094022	0	0.211734	-1.00E-06	-0.793632	0
6.29	-42.731007	754.301025	87.993469	0.149284	0	-0.239372	1.00E-05	2.385323	3.00E-06	1.901708	66.916946	24.063551	-0.102499	0	0.219772	-1.00E-06	-0.74075	0
6.291	-42.731007	749.999146	88.072052	0.14916	0	-0.239296	9.00E-06	2.427116	3.00E-06	1.901708	69.645584	23.514675	-0.102876	0	0.223621	-1.00E-06	-0.558932	0
6.292	-42.267509	749.990967	88.228951	0.149142	0	-0.239222	9.00E-06	2.427116	3.00E-06	0.505443	83.228851	18.264959	-0.108893	0	0.235787	-1.00E-06	-0.154191	-1.00E-06
6.293	-42.188213	749.990967	88.934128	0.149142	0	-0.239222	1.00E-05	2.40985	3.00E-06	0.505443	85.297531	16.14883	-0.113581	0	0.235787	-1.00E-06	-0.154191	-1.00E-06
6.294	-42.029625	750.512085	88.934128	0.149142	0	-0.238971	1.00E-05	2.40985	3.00E-06	2.063905	85.297531	13.954769	-0.113581	0	0.231158	-1.00E-06	-0.477998	-1.00E-06
6.295	-41.407539	750.512085	88.855667	0.149349	0	-0.238935	1.00E-05	2.417884	6.00E-06	2.063905	85.297531	11.525959	-0.110096	0	0.228545	0	-0.477998	-1.00E-06
6.296	-41.407539	751.224121	88.855667	0.149786	0	-0.238453	9.00E-06	2.417884	6.00E-06	2.06607	85.984901	9.096987	-0.109725	0	0.231085	0	-0.440161	-1.00E-06
6.297	-41.561077	750.010681	89.404144	0.149771	0	-0.238453	9.00E-06	2.393819	5.00E-06	2.456768	85.984901	6.825001	-0.107614	0	0.224828	0.00E+00	-0.440161	-1.00E-06
6.298	-41.561077	749.842529	89.71759	0.149771	0	-0.238453	9.00E-06	2.357093	5.00E-06	2.456768	79.283707	5.022953	-0.100899	0	0.216117	-1.00E-06	-0.541487	-1.00E-06
6.299	-41.326084	749.842529	89.71759	0.149643	0	-0.238504	9.00E-06	2.357093	5.00E-06	2.451717	79.132111	3.064329	-0.09921	0	0.210882	0.00E+00	-0.541487	0.00E+00
6.3	-41.322472	748.63208	89.325775	0.149385	0	-0.23844	9.00E-06	2.304079	5.00E-06	2.213835	79.132111	-1.714153	-0.097326	0	0.206766	0	-0.314213	0
6.301	-41.326084	748.46936	89.325775	0.149385	0	-0.238373	9.00E-06	2.2662	8.00E-06	2.213835	78.113792	-1.714153	-0.09586	0	0.202059	0	-0.314213	0
6.302	-41.322472	746.388672	89.482513	0.149393	0	-0.238373	1.10E-05	2.2662	1.10E-05	2.525961	81.033737	-1.715078	-0.089902	0	0.202059	0	-0.607771	0.00E+00
6.303	-41.246067	746.388672	89.482513	0.149796	0	-0.238057	1.10E-05	2.2662	8.00E-06	2.525961	81.033737	-2.577078	-0.089702	0	0.207618	-1.00E-06	-0.607771	-1.00E-06
6.304	-40.073975	743.478821	89.326096	0.149448	0	-0.238585	1.10E-05	2.276598	4.00E-06	1.275294	84.621773	-4.927557	-0.089902	0	0.207618	-1.00E-06	-0.333077	0.00E+00
